<?xml version="1.0" standalone="no"?>
<!DOCTYPE svg PUBLIC "-//W3C//DTD SVG 20010904//EN"
 "http://www.w3.org/TR/2001/REC-SVG-20010904/DTD/svg10.dtd">
<svg version="1.0" xmlns="http://www.w3.org/2000/svg"
 width="169.000000pt" height="177.000000pt" viewBox="0 0 169.000000 177.000000"
 preserveAspectRatio="xMidYMid meet">

<g transform="translate(0.000000,177.000000) scale(0.100000,-0.100000)"
fill="#000000" stroke="none">
<path d="M616 1535 c-22 -12 -68 -15 -221 -15 -107 0 -205 -4 -219 -10 -34
-13 -33 -43 3 -89 15 -20 32 -47 36 -61 4 -14 11 -29 15 -35 9 -11 41 -88 78
-190 27 -74 32 -118 52 -439 6 -104 16 -200 21 -212 12 -34 52 -40 91 -15 174
109 270 145 359 135 50 -6 59 -4 78 15 45 45 -11 77 -129 75 -64 -2 -201 -53
-274 -103 -29 -20 -46 -27 -47 -19 0 7 -5 78 -10 158 -6 80 -13 184 -16 232
l-5 86 29 15 c26 14 134 44 227 64 85 18 79 88 -6 85 -48 -2 -246 -57 -263
-73 -15 -15 -25 -10 -25 12 0 21 -18 66 -81 209 l-29 65 168 5 c142 5 174 9
213 27 50 23 64 43 46 66 -18 24 -59 29 -91 12z"/>
<path d="M1095 1396 c-48 -21 -92 -78 -104 -136 -30 -142 0 -236 98 -310 30
-22 58 -40 62 -40 16 0 79 -62 94 -93 9 -18 18 -73 22 -133 5 -90 3 -111 -17
-174 -26 -80 -56 -117 -124 -149 -90 -42 -296 -21 -332 34 -34 53 -98 12 -75
-48 13 -33 28 -43 116 -72 68 -23 92 -26 175 -23 84 3 104 7 162 36 76 37 120
84 144 152 9 25 23 58 31 74 25 46 11 285 -19 335 -33 56 -67 89 -141 139 -40
26 -79 61 -94 85 -24 38 -25 47 -20 121 5 72 8 83 33 104 23 21 35 23 101 20
64 -2 77 1 89 16 17 24 3 53 -32 66 -36 14 -134 12 -169 -4z"/>
</g>
</svg>
